<svg width="28" height="30" viewBox="0 0 28 30" fill="none" xmlns="http://www.w3.org/2000/svg">
<path d="M22.7794 21.0671C20.9927 22.6693 16.8096 26.4205 14.9363 28.1005C14.4019 28.5797 13.5979 28.5795 13.0636 28.1003C11.2196 26.4466 7.1317 22.7808 5.22074 21.0671C0.372058 16.719 0.372058 9.66927 5.22074 5.32115C10.0694 0.973028 17.9307 0.973028 22.7794 5.32115C27.628 9.66927 27.628 16.719 22.7794 21.0671Z" stroke="#111827" stroke-width="2.13158" stroke-linecap="round" stroke-linejoin="round"/>
<path d="M18.656 13.1941C18.656 15.5001 16.5715 17.3694 14.0001 17.3694C11.4287 17.3694 9.34412 15.5001 9.34412 13.1941C9.34412 10.8882 11.4287 9.01885 14.0001 9.01885C16.5715 9.01885 18.656 10.8882 18.656 13.1941Z" stroke="#111827" stroke-width="2.13158" stroke-linecap="round" stroke-linejoin="round"/>
</svg>
