<svg width="26" height="27" viewBox="0 0 26 27" fill="none" xmlns="http://www.w3.org/2000/svg">
<path fill-rule="evenodd" clip-rule="evenodd" d="M18.7332 16.1683C18.421 16.0014 16.8904 15.1971 16.6054 15.0851C16.3205 14.9742 16.113 14.9193 15.9046 15.2531C15.6971 15.5847 15.101 16.3353 14.9198 16.5571C14.7375 16.78 14.5562 16.8069 14.2451 16.6411C13.9339 16.473 12.9303 16.1224 11.7412 14.9888C10.8162 14.106 10.1907 13.0161 10.0095 12.6823C9.82824 12.3496 9.98958 12.1692 10.1457 12.0034C10.2861 11.8544 10.4568 11.6147 10.6129 11.4209C10.769 11.226 10.8204 11.0871 10.9241 10.8642C11.0288 10.6424 10.9765 10.4486 10.8979 10.2817C10.8204 10.1148 10.1981 8.47589 9.93824 7.80937C9.68576 7.16077 9.42909 7.24926 9.23842 7.23806C9.05613 7.2291 8.84869 7.22686 8.64126 7.22686C8.43383 7.22686 8.09649 7.30976 7.81153 7.64358C7.52553 7.97628 6.72199 8.78171 6.72199 10.4206C6.72199 12.0583 7.83667 13.6412 7.99277 13.8641C8.14887 14.0859 10.1876 17.4487 13.3106 18.8904C14.0544 19.2332 14.6338 19.4382 15.0853 19.5906C15.8312 19.8449 16.5101 19.809 17.0465 19.7228C17.6436 19.6275 18.8882 18.9173 19.148 18.1399C19.4068 17.3625 19.4068 16.696 19.3293 16.5571C19.2518 16.4182 19.0443 16.3353 18.7321 16.1683H18.7332ZM13.0529 24.4612H13.0487C11.1938 24.4616 9.3729 23.9284 7.77696 22.9176L7.39981 22.6779L3.47954 23.7779L4.52613 19.6914L4.27994 19.2724C3.24292 17.5074 2.69412 15.4646 2.69695 13.3802C2.69905 7.27503 7.34428 2.30804 13.0571 2.30804C15.8228 2.30804 18.4231 3.46185 20.378 5.55439C21.3422 6.58115 22.1064 7.80216 22.6265 9.14678C23.1466 10.4914 23.4121 11.9329 23.4078 13.388C23.4057 19.4931 18.7604 24.4612 13.0529 24.4612ZM21.8656 3.96482C20.7113 2.72243 19.3379 1.73733 17.825 1.06662C16.312 0.395915 14.6896 0.0529289 13.0518 0.057541C6.18559 0.057541 0.595385 6.03384 0.593289 13.379C0.592242 15.727 1.1653 18.0189 2.25589 20.0387L0.488525 26.9425L7.09285 25.0897C8.9198 26.154 10.9671 26.7117 13.0476 26.7117H13.0529C19.9191 26.7117 25.5093 20.7354 25.5114 13.3891C25.5165 11.6385 25.1969 9.90426 24.5711 8.28661C23.9453 6.66896 23.0257 5.20004 21.8656 3.96482Z" fill="black"/>
</svg>
