<svg width="26" height="25" viewBox="0 0 26 25" fill="none" xmlns="http://www.w3.org/2000/svg">
<path d="M18.2083 9.37496V7.29163C18.2083 6.14104 17.2756 5.2083 16.125 5.2083H5.70833C4.55774 5.2083 3.625 6.14104 3.625 7.29163V13.5416C3.625 14.6922 4.55774 15.625 5.70833 15.625H7.79167M9.875 19.7916H20.2917C21.4423 19.7916 22.375 18.8589 22.375 17.7083V11.4583C22.375 10.3077 21.4423 9.37496 20.2917 9.37496H9.875C8.72441 9.37496 7.79167 10.3077 7.79167 11.4583V17.7083C7.79167 18.8589 8.72441 19.7916 9.875 19.7916ZM17.1667 14.5833C17.1667 15.7339 16.2339 16.6666 15.0833 16.6666C13.9327 16.6666 13 15.7339 13 14.5833C13 13.4327 13.9327 12.5 15.0833 12.5C16.2339 12.5 17.1667 13.4327 17.1667 14.5833Z" stroke="#91B174" stroke-width="1.94848" stroke-linecap="round" stroke-linejoin="round"/>
</svg>
